<svg viewBox="0 0 24 24" xmlns="http://www.w3.org/2000/svg" >
  <path fill="#030303" d="M21.492 1.008A2.453 2.453 0 0 0 18.025.91l-1.147 1.084-6.495 6.137-3.79 3.582L5.018 13.2a.287.287 0 0 0-.056.075l-.164.312a.287.287 0 0 0-.001.003l-3.305 6.306-.003.003-1.384 2.64a.287.287 0 0 0-.015.037.057.057 0 0 0-.005.017.287.287 0 0 0-.007.029.275.275 0 0 0 .019.164.287.287 0 0 0 .001.003l.01.02a.287.287 0 0 0 .01.017c.003.003.005.01.008.012a.287.287 0 0 0 .023.028c.002.003.004.003.006.01a.287.287 0 0 0 .022.02c.003.002.006.002.009.008a.287.287 0 0 0 .025.018c.006.003.013.009.02.011a.287.287 0 0 0 .007.003c.05.026.105.032.163.026h.001a.287.287 0 0 0 .007-.002c.01-.002.02-.003.031-.009a.287.287 0 0 0 .038-.011l2.713-1.232 6.812-3.093a.287.287 0 0 0 .078-.053l1.574-1.487 3.79-3.582 6.495-6.138 1.147-1.083a2.454 2.454 0 0 0 .098-3.468zm-4.428 1.6l.947 1.002-10.93 10.328a1.091 1.091 0 0 1-1.555-.044l-.03-.032c-.046-.049-.075-.105-.11-.159l.062-.12 1.54-1.454 3.79-3.581zm1.34 1.419l1.542 1.63-10.93 10.329a1.092 1.092 0 0 1-1.555-.044l-.03-.033a1.091 1.091 0 0 1 .044-1.555zm1.935 2.047l.999 1.057-6.287 5.94-3.79 3.582-1.54 1.455-.101.046c-.078-.05-.158-.095-.224-.165l-.03-.032a1.09 1.09 0 0 1 .043-1.555zM6.6 14.79c-.117.525.02 1.096.415 1.515l.03.032c.395.42.959.588 1.489.5-.117.525.02 1.097.416 1.516l.03.033c.014.017.029.028.043.041L3.14 21.097l-1.049-1.11 2.998-5.719.02.02c.396.419.96.588 1.49.5z" />
</svg>