<svg xmlns="http://www.w3.org/2000/svg" viewBox="0 0 92 43.688"><g fill="#1400d3"><path d="M2.343 25.944C.938 25.006 0 23.133 0 21.492c0-1.64.703-3.162 2.46-3.982h-.117C10.66 12.59 22.258 6.03 29.99 1.461v10.895c-3.046 1.757-7.146 3.749-17.455 9.255l.117.116c5.506 2.461 11.832 6.209 17.338 9.489v11.012zM89.657 17.744c1.404.938 2.343 2.812 2.343 4.452 0 1.64-.703 3.162-2.461 3.982h.118c-8.317 4.92-19.916 11.48-27.647 16.049V31.332c3.046-1.756 7.146-3.748 17.455-9.254l-.117-.116c-5.505-2.461-11.832-6.209-17.338-9.489V1.461zM42.401 43.688H35.39L49.48 0h7.13z"/></g></svg>