<svg xmlns="http://www.w3.org/2000/svg" xmlns:xlink="http://www.w3.org/1999/xlink" viewBox="0 0 42 42"><defs><linearGradient id="g" x1="98.33" x2="86.82" y1="14.793" y2="25.1" gradientTransform="matrix(.34095 0 0 .34095 112.983 114.809)" gradientUnits="userSpaceOnUse" xlink:href="#a"/><linearGradient id="a"><stop/><stop offset="1" stop-color="#ddd" stop-opacity="0"/></linearGradient><radialGradient id="e" cx="89.51" cy="22.254" r="18.279" gradientTransform="matrix(1 0 0 .97468 0 .44)" gradientUnits="userSpaceOnUse" xlink:href="#b"/><linearGradient id="b"><stop/><stop offset="1" stop-opacity=".536"/></linearGradient><filter id="f" width="1.294" height="1.29" x="-.147" y="-.145"><feGaussianBlur stdDeviation="1.819"/></filter><radialGradient id="d" cx="81.79" cy="100.32" r="44.42" gradientTransform="matrix(.70598 -.563 .62656 .78568 14.383 123.196)" gradientUnits="userSpaceOnUse" xlink:href="#c"/><linearGradient id="c"><stop stop-color="#eee"/><stop offset="1" stop-color="#fff"/></linearGradient></defs><path fill="url(#d)" stroke="#000" stroke-width=".353" d="M119.834 115.736v40.232h30.29v-29.375l-10.547-10.857z" transform="translate(-114.482 -114.47)"/><path fill="url(#e)" d="M81.698 28.31l.135-8.351c.068-6.6-.877-11.548-4.047-16.012l2.576-.031 27.5 25.615c-4.067-2.646-9.62-.791-16.861-1.026z" filter="url(#f)" opacity=".505" transform="matrix(.3582 0 0 .3921 -3.396 .247)"/><path fill="#eee" d="M27.112 9.468l.046-2.847c.024-2.25-.948-3.82-2.03-5.342l10.53 10.783c-1.387-.902-2.905-2.447-5.374-2.527z"/><path fill="url(#g)" d="M141.594 123.939l.046-2.847c.023-2.25-.949-3.82-2.03-5.342l10.53 10.783c-1.388-.902-2.905-2.447-5.374-2.527z" transform="translate(-114.482 -114.47)"/><g fill="none" stroke="#c2c2c2" stroke-opacity=".868" stroke-width="1.001"><path stroke-width=".35288252999999997" d="M7.23 5.136h16.122M7.23 10.179h16.122M7.23 15.277h25.343M7.23 20.429h25.343M7.23 25.581h25.343M7.23 30.734h25.343M7.23 35.886h25.343"/></g></svg>