<svg xmlns="http://www.w3.org/2000/svg" viewBox="0 0 42 42"><defs><linearGradient id="a"><stop/><stop offset="1" stop-color="#ddd" stop-opacity="0"/></linearGradient><linearGradient id="b"><stop/><stop offset="1" stop-opacity=".536"/></linearGradient><linearGradient id="c"><stop stop-color="#eee"/><stop offset="1" stop-color="#fff"/></linearGradient></defs><path fill="#ca521f" stroke="#ce6532" stroke-width=".11756" d="M41.106 20.089a.484.484 0 0 0-.248-.274l-16.772-6.839a.662.662 0 0 1-.152-.098 1.06 1.06 0 0 1-.169-.184 2.173 2.173 0 0 1-.134-.201 4.552 4.552 0 0 1-.266-.547 6.759 6.759 0 0 1-.324-1.084 7.826 7.826 0 0 1-.129-.826 6.871 6.871 0 0 1-.031-.542 5.416 5.416 0 0 1 .013-.488c.011-.153.03-.294.054-.423.025-.129.056-.245.091-.346a1.371 1.371 0 0 1 .12-.258.774.774 0 0 1 .07-.094.515.515 0 0 1 .071-.068l.014-.01.013-.009a.139.139 0 0 1 .013-.008l.013-.008L1.584 19.414l-.01.006a.118.118 0 0 0-.012.008l-.011.007a.335.335 0 0 0-.07.074.581.581 0 0 0-.051.092 1.37 1.37 0 0 0-.08.26c-.021.103-.035.222-.042.356a4.415 4.415 0 0 0 0 .44c.008.16.023.332.046.514s.055.375.094.576a9.876 9.876 0 0 0 .347 1.304 9.205 9.205 0 0 0 .295.76c.052.115.104.224.156.326.052.1.103.194.154.28a3.328 3.328 0 0 0 .24.346 1.384 1.384 0 0 0 .162.164.58.58 0 0 0 .073.05l16.442 9.214a.51.51 0 0 1 .105.08.741.741 0 0 1 .16.241.478.478 0 0 1 .038.188.201.201 0 0 1-.008.049.132.132 0 0 1-.019.037.105.105 0 0 1-.026.027l21.49-14.435a.147.147 0 0 0 .031-.029.19.19 0 0 0 .038-.085.38.38 0 0 0-.02-.175z"/><path fill="#3f973e" d="M18.278 30.326a9.641 9.641 0 0 0 .285 1.405 9.814 9.814 0 0 0 .46 1.284 9.355 9.355 0 0 0 .247.5l.09.157L3.283 24.73a.831.831 0 0 1-.153-.12 2.094 2.094 0 0 1-.177-.214 3.055 3.055 0 0 1-.148-.228 4.774 4.774 0 0 1-.154-.28 6.672 6.672 0 0 1-.307-.692 9.186 9.186 0 0 1-.275-.818 10.39 10.39 0 0 1-.214-.889 8.557 8.557 0 0 1-.093-.577 6.568 6.568 0 0 1-.044-.516 4.398 4.398 0 0 1 0-.444c.008-.134.023-.254.044-.358.01-.051.023-.099.037-.143a.937.937 0 0 1 .045-.118.601.601 0 0 1 .053-.092.357.357 0 0 1 .059-.065.238.238 0 0 1 .063-.04.187.187 0 0 1 .066-.015.228.228 0 0 1 .068.007.345.345 0 0 1 .072.028l16.39 8.51a.98.98 0 0 0-.11.16 1.543 1.543 0 0 0-.092.193 2.426 2.426 0 0 0-.131.476c-.023.122-.04.253-.051.392a5.446 5.446 0 0 0-.02.438c0 .154.005.314.016.481.01.167.027.34.05.52z"/><path fill="#fff" d="M18.278 30.326a9.641 9.641 0 0 0 .285 1.405 9.814 9.814 0 0 0 .46 1.284 9.355 9.355 0 0 0 .247.5l.09.157L3.283 24.73a.831.831 0 0 1-.153-.12 2.094 2.094 0 0 1-.177-.214 3.055 3.055 0 0 1-.148-.228 4.774 4.774 0 0 1-.154-.28 6.672 6.672 0 0 1-.307-.692 9.186 9.186 0 0 1-.275-.818 10.39 10.39 0 0 1-.214-.889 8.557 8.557 0 0 1-.093-.577 6.568 6.568 0 0 1-.044-.516 4.398 4.398 0 0 1 0-.444c.008-.134.023-.254.044-.358.01-.051.023-.099.037-.143a.937.937 0 0 1 .045-.118.601.601 0 0 1 .053-.092.357.357 0 0 1 .059-.065.238.238 0 0 1 .063-.04.187.187 0 0 1 .066-.015.228.228 0 0 1 .068.007.345.345 0 0 1 .072.028l16.39 8.51a.98.98 0 0 0-.11.16 1.543 1.543 0 0 0-.092.193 2.426 2.426 0 0 0-.131.476c-.023.122-.04.253-.051.392a5.446 5.446 0 0 0-.02.438c0 .154.005.314.016.481.01.167.027.34.05.52z"/><path fill="#3f973e" d="M23.065 8.003a.354.354 0 0 0-.122-.021.27.27 0 0 0-.122.035L2.001 19.145a.215.215 0 0 1 .054-.02c.018-.004.037-.005.055-.004a.33.33 0 0 1 .115.035l16.39 8.51 21.182-13.338-16.732-6.326z"/><path fill="#e2e3e4" d="M39.875 19.832a4.154 4.154 0 0 1-.144-.295 6.114 6.114 0 0 1-.266-.72 7.09 7.09 0 0 1-.259-1.252 7.766 7.766 0 0 1-.048-1.155 5.81 5.81 0 0 1 .101-.877c.028-.134.06-.26.097-.38a2.943 2.943 0 0 1 .19-.467c.037-.07.076-.134.118-.194.042-.06.086-.115.133-.164L18.615 27.667c-.04.047-.076.1-.109.159-.033.06-.064.123-.091.193a2.26 2.26 0 0 0-.074.224c-.022.079-.042.163-.058.252-.022.122-.04.253-.051.392a5.426 5.426 0 0 0-.02.438 7.186 7.186 0 0 0 .066 1 9.641 9.641 0 0 0 .285 1.406 9.814 9.814 0 0 0 .46 1.284 6.303 6.303 0 0 0 .336.657l20.594-13.7a4.53 4.53 0 0 1-.078-.14z"/><path fill="#ca521f" stroke="#ce6532" stroke-width=".11756" d="M40.96 13.878a.502.502 0 0 0-.148-.214.379.379 0 0 0-.106-.063L23.541 7.213a.688.688 0 0 0-.255-.043.519.519 0 0 0-.22.06L1.254 18.8a.356.356 0 0 1 .092-.034c.033-.007.067-.01.104-.007a.492.492 0 0 1 .114.02c.04.012.082.029.125.052l16.797 8.726c.037.02.074.047.108.08a.715.715 0 0 1 .201.382.322.322 0 0 1-.007.121.15.15 0 0 1-.02.043.123.123 0 0 1-.032.029L40.9 14.192a.153.153 0 0 0 .036-.031.197.197 0 0 0 .044-.096.407.407 0 0 0-.02-.188z"/><g><path fill="#d5804b" stroke="#ce6532" stroke-width=".11756" d="M1.69 18.83l16.796 8.727c.037.02.074.047.108.08a.715.715 0 0 1 .201.382.288.288 0 0 1-.005.115.134.134 0 0 1-.045.072.116.116 0 0 1-.077.024.231.231 0 0 1-.101-.03L1.806 19.426a.317.317 0 0 0-.07-.029.224.224 0 0 0-.069-.007.183.183 0 0 0-.064.016.247.247 0 0 0-.063.038.335.335 0 0 0-.058.066.581.581 0 0 0-.052.09 1.37 1.37 0 0 0-.08.26c-.021.104-.036.223-.043.357a4.415 4.415 0 0 0 .001.44c.008.16.023.332.046.514a9.876 9.876 0 0 0 .441 1.88 9.205 9.205 0 0 0 .295.76c.052.115.104.224.156.326.052.1.103.194.154.28a3.328 3.328 0 0 0 .24.346 1.384 1.384 0 0 0 .162.164.58.58 0 0 0 .073.05l16.442 9.214c.036.02.071.048.105.081a.741.741 0 0 1 .16.24c.018.044.03.088.035.13a.257.257 0 0 1-.006.106.12.12 0 0 1-.044.065.114.114 0 0 1-.075.017.244.244 0 0 1-.1-.034L2.983 25.54a1.218 1.218 0 0 1-.158-.109 1.836 1.836 0 0 1-.159-.143 2.697 2.697 0 0 1-.303-.365 4.53 4.53 0 0 1-.282-.445 6.342 6.342 0 0 1-.26-.507 10.961 10.961 0 0 1-.638-1.795 11.264 11.264 0 0 1-.232-1.133 8.241 8.241 0 0 1-.054-.446 6.467 6.467 0 0 1-.025-.409 4.762 4.762 0 0 1 .003-.368c.006-.115.017-.223.032-.322.015-.1.035-.191.06-.273.025-.083.055-.156.09-.218a.605.605 0 0 1 .123-.156.362.362 0 0 1 .22-.093.465.465 0 0 1 .137.013.694.694 0 0 1 .152.06z"/></g></svg>