<svg xmlns="http://www.w3.org/2000/svg" viewBox="0 0 170.799 40.476"><path fill="none" stroke="#565656" stroke-linecap="round" stroke-width="2" d="M11.958 15.42C-2.389 15.896-2.082.893 10.813 1c9.441.08 18.249.08 28.676.08l-4.37 5.212" paint-order="markers fill stroke"/><path fill="none" stroke="#0d0d0d" stroke-linecap="round" stroke-width="6" d="M3 25.295c0 7.718-.009 7.523.394 8.513.83 2.038 2.677 3.414 4.851 3.613h0c.785.072 24.467.074 25.261.003a5.76 5.76 0 0 0 4.768-3.353c.539-1.164.502-.561.524-8.557.019-6.815.1-7.183-.108-7.76-.993-2.747-2.269-2.37-4.684-2.636-4.46-.49-16.477-.124-24.23-.9" paint-order="markers fill stroke"/><g aria-label="OCIFY" style="line-height:1.25" stroke-width=".946" font-family="BankGothic Md BT" font-size="37.851" font-weight="400" letter-spacing="0" word-spacing="0"><path d="M46.675 24.801q0-2.661.998-3.64.998-.98 3.844-.98h14.38q2.845 0 3.843.98.998.979.998 3.64v10.295q0 2.68-.998 3.66-.998.96-3.844.96H51.517q-2.846 0-3.844-.96-.998-.98-.998-3.66zm4.547 11.237H66.21V23.674H51.222zM96.742 23.674H84.49v12.364h12.253v-4.195l4.547.943v2.31q0 2.68-1.017 3.66-.998.96-3.825.96H84.785q-2.847 0-3.845-.96-.998-.98-.998-3.66V24.8q0-2.661.998-3.64.998-.98 3.845-.98h11.662q2.827 0 3.825.98 1.017.979 1.017 3.64v1.849l-4.547.72zM110.659 39.716V20.181h4.547v19.535zM125.223 39.716V20.181h19.757v3.42h-15.21v5.137h8.224v3.567h-8.225v7.411zM156.106 39.716v-8.742l-10.147-10.793h6.062l6.709 7.504 6.727-7.504h5.342l-10.11 10.682v8.853z" style="-inkscape-font-specification:'BankGothic Md BT'"/></g><path fill="none" stroke="#565656" stroke-linecap="round" stroke-width="2" d="M9.581 6.716h30.747l-2.624 3.972"/><path fill="#c4c4c4" d="M8.409 34.353a2.666 2.666 0 0 1-1.59-.794c-.7-.7-.697-.681-.77-5.073l-.065-3.921-.241-.543c-.433-.973-1.392-1.648-2.48-1.747-.981-.089-2.097.399-2.669 1.165l-.265.355.007-6.89c.007-6.734.011-6.881.176-6.419.873 2.45 3.025 4.362 5.948 5.282.61.192.9.346 1.257.668.255.23.686.5.956.6 1.116.413 5.443.615 18.493.864 4.737.09 8.389.31 8.53.513.04.057.061 3.23.047 7.05l-.026 6.945-.213.399c-.334.626-.746 1.036-1.329 1.322l-.536.263-12.38.012c-6.807.006-12.59-.017-12.85-.051z" paint-order="markers fill stroke"/><path fill="#c4c4c4" d="M6.357 13.558c-2.258-.936-3.66-2.456-4.082-4.427-.105-.488-.105-1.429-.001-1.91a4.97 4.97 0 0 1 .474-1.334c.943-1.904 2.994-3.233 5.697-3.692 1.054-.18.717-.175 10.423-.134 4.925.021 11.086.041 13.691.045l4.738.006L35.8 3.905l-1.497 1.793-12.495.011-12.495.01-.164.082c-.21.103-.385.279-.486.488a1.108 1.108 0 0 0-.005.841c.091.204.311.42.532.522l.156.072 14.539.017 14.539.017-.815 1.232c-.448.678-.838 1.301-.866 1.384-.117.345-.033.713.228 1 .133.145.16.193.133.237-.018.03-.12.21-.225.398-.105.188-.202.342-.214.342-.013 0-.114-.015-.224-.033a32.5 32.5 0 0 0-1.203-.117c-.551-.047-1.13-.1-1.286-.117-1.244-.138-4.051-.23-9.137-.3-5.668-.079-8.886-.168-11.493-.32a92.458 92.458 0 0 1-2.906-.216c-.452-.047-.958-.039-1.246.02a3.03 3.03 0 0 0-1.784 1.115 3.502 3.502 0 0 0-.525 1.07c-.034.136-.075.252-.091.256a2.987 2.987 0 0 1-.414-.151z" paint-order="markers fill stroke"/></svg>