<svg xmlns="http://www.w3.org/2000/svg" viewBox="0 0 24 24">
  <symbol id="linkedin">
    <path d="M20.447 20.452h-3.554v-5.569c0-1.328-.027-3.037-1.852-3.037-1.853 0-2.136 1.445-2.136 2.939v5.667H9.351V9h3.414v1.561h.046c.477-.9 1.637-1.85 3.37-1.85 3.601 0 4.267 2.37 4.267 5.455v6.286zM5.337 7.433a2.062 2.062 0 0 1-2.063-2.065 2.064 2.064 0 1 1 2.063 2.065zm1.782 13.019H3.555V9h3.564v11.452zM22.225 0H1.771C.792 0 0 .774 0 1.729v20.542C0 23.227.792 24 1.771 24h20.451C23.2 24 24 23.227 24 22.271V1.729C24 .774 23.2 0 22.222 0h.003z" />
  </symbol>
  <symbol id="facebook">
    <path d="M23.998 12c0-6.628-5.372-12-11.999-12C5.372 0 0 5.372 0 12c0 5.988 4.388 10.952 10.124 11.852v-8.384H7.078v-3.469h3.046V9.356c0-3.008 1.792-4.669 4.532-4.669 1.313 0 2.686.234 2.686.234v2.953H15.83c-1.49 0-1.955.925-1.955 1.874V12h3.328l-.532 3.469h-2.796v8.384c5.736-.9 10.124-5.864 10.124-11.853z" />
  </symbol>
  <symbol id="pinterest">
    <path d="M12.017 0C5.396 0 .029 5.367.029 11.987c0 5.079 3.158 9.417 7.618 11.162-.105-.949-.199-2.403.041-3.439.219-.937 1.406-5.957 1.406-5.957s-.359-.72-.359-1.781c0-1.663.967-2.911 2.168-2.911 1.024 0 1.518.769 1.518 1.688 0 1.029-.653 2.567-.992 3.992-.285 1.193.6 2.165 1.775 2.165 2.128 0 3.768-2.245 3.768-5.487 0-2.861-2.063-4.869-5.008-4.869-3.41 0-5.409 2.562-5.409 5.199 0 1.033.394 2.143.889 2.741.099.12.112.225.085.345-.09.375-.293 1.199-.334 1.363-.053.225-.172.271-.401.165-1.495-.69-2.433-2.878-2.433-4.646 0-3.776 2.748-7.252 7.92-7.252 4.158 0 7.392 2.967 7.392 6.923 0 4.135-2.607 7.462-6.233 7.462-1.214 0-2.354-.629-2.758-1.379l-.749 2.848c-.269 1.045-1.004 2.352-1.498 3.146 1.123.345 2.306.535 3.55.535 6.607 0 11.985-5.365 11.985-11.987C23.97 5.39 18.592.026 11.985.026L12.017 0z" />
  </symbol>
  <symbol id="reddit">
    <path d="M2.204 14.049c-.06.276-.091.56-.091.847 0 3.443 4.402 6.249 9.814 6.249 5.41 0 9.812-2.804 9.812-6.249 0-.274-.029-.546-.082-.809l-.015-.032a.456.456 0 0 1-.029-.165c-.302-1.175-1.117-2.241-2.296-3.103a.422.422 0 0 1-.126-.07c-.026-.02-.045-.042-.067-.064-1.792-1.234-4.356-2.008-7.196-2.008-2.815 0-5.354.759-7.146 1.971a.397.397 0 0 1-.179.124c-1.206.862-2.042 1.937-2.354 3.123a.454.454 0 0 1-.037.171l-.008.015zm9.773 5.441c-1.794 0-3.057-.389-3.863-1.197a.45.45 0 0 1 0-.632.47.47 0 0 1 .635 0c.63.629 1.685.943 3.228.943 1.542 0 2.591-.3 3.219-.929a.463.463 0 0 1 .629 0 .482.482 0 0 1 0 .645c-.809.808-2.065 1.198-3.862 1.198l.014-.028zm-3.606-7.573c-.914 0-1.677.765-1.677 1.677 0 .91.763 1.65 1.677 1.65s1.651-.74 1.651-1.65c0-.912-.739-1.677-1.651-1.677zm7.233 0c-.914 0-1.678.765-1.678 1.677 0 .91.764 1.65 1.678 1.65s1.651-.74 1.651-1.65c0-.912-.739-1.677-1.651-1.677zm4.548-1.595c1.037.833 1.8 1.821 2.189 2.904a1.818 1.818 0 1 0-2.189-2.902v-.002zM2.711 9.963a1.82 1.82 0 0 0-1.173 3.207c.401-1.079 1.172-2.053 2.213-2.876a1.82 1.82 0 0 0-1.039-.329v-.002zm9.217 12.079c-5.906 0-10.709-3.205-10.709-7.142 0-.275.023-.544.068-.809A2.723 2.723 0 0 1 0 11.777a2.725 2.725 0 0 1 2.725-2.713 2.7 2.7 0 0 1 1.797.682c1.856-1.191 4.357-1.941 7.112-1.992l1.812-5.524.404.095s.016 0 .016.002l4.223.993a2.237 2.237 0 0 1 4.296.874c0 1.232-1.003 2.234-2.231 2.234s-2.23-1.004-2.23-2.23l-3.851-.912-1.467 4.477c2.65.105 5.047.854 6.844 2.021a2.663 2.663 0 0 1 1.833-.719 2.716 2.716 0 0 1 2.718 2.711c0 .987-.54 1.886-1.378 2.365.029.255.059.494.059.749-.015 3.938-4.806 7.143-10.72 7.143l-.034.009zm8.179-19.187a1.339 1.339 0 1 0 0 2.678c.732 0 1.33-.6 1.33-1.334 0-.733-.598-1.332-1.347-1.332l.017-.012z" />
  </symbol>
  <symbol id="github">
    <path d="M12 .297c-6.63 0-12 5.373-12 12 0 5.303 3.438 9.8 8.205 11.385.6.113.82-.258.82-.577 0-.285-.01-1.04-.015-2.04-3.338.724-4.042-1.61-4.042-1.61C4.422 18.07 3.633 17.7 3.633 17.7c-1.087-.744.084-.729.084-.729 1.205.084 1.838 1.236 1.838 1.236 1.07 1.835 2.809 1.305 3.495.998.108-.776.417-1.305.76-1.605-2.665-.3-5.466-1.332-5.466-5.93 0-1.31.465-2.38 1.235-3.22-.135-.303-.54-1.523.105-3.176 0 0 1.005-.322 3.3 1.23.96-.267 1.98-.399 3-.405 1.02.006 2.04.138 3 .405 2.28-1.552 3.285-1.23 3.285-1.23.645 1.653.24 2.873.12 3.176.765.84 1.23 1.91 1.23 3.22 0 4.61-2.805 5.625-5.475 5.92.42.36.81 1.096.81 2.22 0 1.606-.015 2.896-.015 3.286 0 .315.21.69.825.57C20.565 22.092 24 17.592 24 12.297c0-6.627-5.373-12-12-12"/>
  </symbol>
  <symbol id="youtube">
    <path d="M23.495 6.205a3.007 3.007 0 0 0-2.088-2.088c-1.87-.501-9.396-.501-9.396-.501s-7.507-.01-9.396.501A3.007 3.007 0 0 0 .527 6.205a31.247 31.247 0 0 0-.522 5.805 31.247 31.247 0 0 0 .522 5.783 3.007 3.007 0 0 0 2.088 2.088c1.868.502 9.396.502 9.396.502s7.506 0 9.396-.502a3.007 3.007 0 0 0 2.088-2.088 31.247 31.247 0 0 0 .5-5.783 31.247 31.247 0 0 0-.5-5.805zM9.609 15.601V8.408l6.264 3.602z"/>
  </symbol>
  <symbol id="nuget">
    <path d="M17.67 21.633a3.995 3.995 0 1 1 0-7.99 3.995 3.995 0 0 1 0 7.99m-7.969-9.157a2.497 2.497 0 1 1 0-4.994 2.497 2.497 0 0 1 0 4.994m8.145-7.795h-6.667a6.156 6.156 0 0 0-6.154 6.155v6.667a6.154 6.154 0 0 0 6.154 6.154h6.667A6.154 6.154 0 0 0 24 17.503v-6.667a6.155 6.155 0 0 0-6.154-6.155M3.995 2.339a1.998 1.998 0 1 1-3.996 0 1.998 1.998 0 0 1 3.996 0"/>
  </symbol>
  <symbol id="twitter">
    <path d="M23.954 4.569c-.885.389-1.83.654-2.825.775 1.014-.611 1.794-1.574 2.163-2.723-.951.555-2.005.959-3.127 1.184-.896-.959-2.173-1.559-3.591-1.559-2.717 0-4.92 2.203-4.92 4.917 0 .39.045.765.127 1.124C7.691 8.094 4.066 6.13 1.64 3.161c-.427.722-.666 1.561-.666 2.475 0 1.71.87 3.213 2.188 4.096-.807-.026-1.566-.248-2.228-.616v.061c0 2.385 1.693 4.374 3.946 4.827-.413.111-.849.171-1.296.171-.314 0-.615-.03-.916-.086.631 1.953 2.445 3.377 4.604 3.417-1.68 1.319-3.809 2.105-6.102 2.105-.39 0-.779-.023-1.17-.067 2.189 1.394 4.768 2.209 7.557 2.209 9.054 0 13.999-7.496 13.999-13.986 0-.209 0-.42-.015-.63.961-.689 1.8-1.56 2.46-2.548l-.047-.02z"/>
  </symbol>
  <symbol id="rss">
    <path d="M19.199 24C19.199 13.467 10.533 4.8 0 4.8V0c13.165 0 24 10.835 24 24h-4.801zM3.291 17.415c1.814 0 3.293 1.479 3.293 3.295 0 1.813-1.485 3.29-3.301 3.29C1.47 24 0 22.526 0 20.71s1.475-3.294 3.291-3.295zM15.909 24h-4.665c0-6.169-5.075-11.245-11.244-11.245V8.09c8.727 0 15.909 7.184 15.909 15.91z"/>
  </symbol>
</svg>